# xmcd
#
# Track frame offsets:
#	150
#	22896
#	42846
#	58440
#	79725
#	104570
#	123035
#	145600
#	169272
#	192613
#
# Disc length: 2925 seconds
# Revision: 0
# Processed by: cddbd v1.5.2PL0 Copyright (c) Steve Scherf et al.
# Submitted via: dBpowerAMP V12.0
#
DISCID=870b6b0a
DTITLE=Sherie Utter and Blue Lipps - Too MuchBlue
DYEAR=2002
DGENRE=R&B
TTITLE0=Yellow Alert
TTITLE1=You're In My Past
TTITLE2=Steal The Time
TTITLE3=Introduction
TTITLE4=This Way
TTITLE5=Too SkinnyFor Me
TTITLE6=Communication
TTITLE7=In That Place Again
TTITLE8=Don't Take So Hard
TTITLE9=Limousine
EXTD=
EXTT0=
EXTT1=
EXTT2=
EXTT3=
EXTT4=
EXTT5=
EXTT6=
EXTT7=
EXTT8=
EXTT9=
PLAYORDER=
